<?xml version="1.0" encoding="UTF-8"?>
<svg version="1.1" xmlns="http://www.w3.org/2000/svg" width="800" height="600">
<path d="M0 0 C264 0 528 0 800 0 C800 198 800 396 800 600 C536 600 272 600 0 600 C0 402 0 204 0 0 Z " fill="#FEFEFE" transform="translate(0,0)"/>
<path d="M0 0 C5.27405603 4.99343333 6.52827022 10.22645251 8.0625 17.1875 C8.31507568 18.28392822 8.56765137 19.38035645 8.82788086 20.51000977 C10.83897822 29.55129318 12.25633585 38.64033621 13.53149414 47.81005859 C15.42186175 74.89110386 15.42186175 74.89110386 25 99 C25.32685791 98.26998779 25.65371582 97.53997559 25.99047852 96.7878418 C27.50574688 93.41705578 29.03403036 90.05231933 30.5625 86.6875 C31.07619141 85.53958984 31.58988281 84.39167969 32.11914062 83.20898438 C41.72732769 62.14258665 41.72732769 62.14258665 50.0234375 57.73828125 C54.36199778 56.11775182 57.6976295 56.5658765 62 58 C69.33433252 62.88955501 73.4463762 70.05383426 77.25 77.8125 C78.08339861 79.48824474 78.921753 81.1615362 79.765625 82.83203125 C80.12430664 83.56139893 80.48298828 84.2907666 80.85253906 85.04223633 C82.02406118 87.04105247 83.2938424 88.44541239 85 90 C88.9152365 88.45709359 90.89207832 86.00204814 93.5625 82.8125 C101.15040982 74.29841884 110.57707062 67.65956925 122.2175293 66.74804688 C125.83733232 66.66938291 129.44242445 66.6889982 133.0625 66.75 C134.29033203 66.75515625 135.51816406 66.7603125 136.78320312 66.765625 C141.46814694 66.8059907 146.0149628 66.86191743 150.66088867 67.51318359 C156.10424591 68.23470726 161.53568794 68.06588282 167.015625 67.9921875 C169.34114158 67.97468548 171.66666268 67.95777585 173.9921875 67.94140625 C177.63521907 67.91034928 181.27802353 67.87464589 184.92089844 67.82861328 C188.45250335 67.78637829 191.98383718 67.7628753 195.515625 67.7421875 C197.15316742 67.71425613 197.15316742 67.71425613 198.8237915 67.6857605 C200.34622467 67.68057907 200.34622467 67.68057907 201.89941406 67.67529297 C202.79017639 67.66561493 203.68093872 67.65593689 204.59869385 67.64596558 C207.51737641 68.07627893 208.87863596 68.97802422 211 71 C211.5625 73.5 211.5625 73.5 211 76 C207.23575646 78.86588972 204.4467492 79.37215387 199.77612305 79.35644531 C198.54101486 79.35944641 197.30590668 79.36244751 196.03337097 79.36553955 C194.69281603 79.35352822 193.35226524 79.34104496 192.01171875 79.328125 C190.62555649 79.3250632 189.23939115 79.32319028 187.85322571 79.32244873 C184.9506142 79.31785358 182.04828132 79.30346402 179.14575195 79.28125 C175.44397056 79.25304788 171.74240883 79.24204487 168.0405302 79.2375679 C164.48923204 79.23238323 160.93798771 79.21785891 157.38671875 79.203125 C156.71801947 79.20124428 156.04932018 79.19936356 155.36035728 79.19742584 C148.48587491 79.1724605 141.79962834 79.03759747 135 78 C132.87871461 77.82280432 130.75253295 77.69466733 128.625 77.625 C127.09746094 77.55152344 127.09746094 77.55152344 125.5390625 77.4765625 C115.87521439 78.90587337 109.64641047 84.74333063 103.25 91.6875 C97.63404282 97.74362679 94.04268676 101.54976011 85.5 102.3125 C79.03063356 101.734878 75.18087848 98.80801025 71 94 C65.37990709 86.59242768 61.26964067 78.22501845 57 70 C53.58379057 71.3829539 52.34187015 72.59375377 50.81640625 75.9296875 C50.44878174 76.71947998 50.08115723 77.50927246 49.70239258 78.32299805 C49.13814575 79.58623901 49.13814575 79.58623901 48.5625 80.875 C48.16635498 81.73327393 47.77020996 82.59154785 47.36206055 83.47583008 C45.21416908 88.16506266 43.20915476 92.89044137 41.3125 97.6875 C38.82182466 103.79864156 35.69315262 108.732082 30.625 113 C26.96273583 114.39514826 23.80726515 114.8412243 20 114 C14.60347562 111.4630772 12.40913786 107.24384132 10.25 101.875 C8.10036488 95.664943 6.40001238 89.41739777 5 83 C4.65001953 81.48212891 4.65001953 81.48212891 4.29296875 79.93359375 C2.13426479 69.97123267 0.84072282 59.90770438 -0.51049805 49.81005859 C-1.76553306 40.48919442 -3.23544618 31.23717187 -5 22 C-6.51736696 27.67559812 -7.54765961 33.24258754 -8.3125 39.0625 C-9.98736806 51.24494984 -11.96236396 63.37504405 -13.94708252 75.51014709 C-14.68926027 80.05906452 -15.41452665 84.61041779 -16.12983704 89.16363525 C-16.64437983 92.43604845 -17.16386475 95.70766959 -17.6836853 98.97924805 C-17.93118109 100.54449492 -18.17657331 102.11007626 -18.41958618 103.67602539 C-19.70505803 111.9503166 -21.16064083 120.14350101 -23.0625 128.30078125 C-23.22561172 129.00331024 -23.38872345 129.70583923 -23.55677795 130.42965698 C-25.08150733 136.75655789 -26.83081262 141.65493256 -31.3125 146.5 C-34.85530212 148.47737793 -36.99737768 148.57180319 -41 148 C-45.16466537 145.96609366 -46.50253755 143.28217737 -48.125 139.125 C-52.19695412 126.42552486 -53.86497655 113.4347362 -55.4375 100.25 C-55.65229141 98.49277238 -55.86763234 96.73561184 -56.08349609 94.97851562 C-57.12613247 86.45325853 -58.1295356 77.92375681 -59.10546875 69.390625 C-59.19273727 68.63219299 -59.2800058 67.87376099 -59.36991882 67.09234619 C-59.77730271 63.55099111 -60.17944444 60.00927946 -60.56811523 56.46582031 C-61.61921473 47.20960822 -63.17638626 38.12862727 -65 29 C-65.7544236 33.29090063 -66.50320771 37.5827648 -67.25 41.875 C-67.36393097 42.52769867 -67.47786194 43.18039734 -67.59524536 43.85287476 C-69.00242377 51.92945015 -70.31512795 60.00737117 -71.47753906 68.12353516 C-72.88366175 77.87235391 -74.62719107 87.43663565 -77 97 C-77.3556604 98.44113159 -77.3556604 98.44113159 -77.71850586 99.91137695 C-82.74570331 119.32199232 -82.74570331 119.32199232 -89.875 124.3125 C-92.92099905 125.29797028 -94.7989439 125.50212645 -98 125 C-106.56451506 120.35772967 -109.16894895 110.82117674 -112 102.125 C-113.99520971 95.38006031 -115.59704433 88.54147886 -117.16210938 81.68603516 C-118.73097497 71.65095367 -118.73097497 71.65095367 -123 63 C-123.39402456 59.45377897 -123.38535513 57.601154 -121.4375 54.5625 C-119 53 -119 53 -115.5625 52.625 C-110.80897167 54.45969515 -110.30602419 56.58765539 -108.21118164 61.04003906 C-106.14393628 66.09210171 -104.77734118 71.2786138 -103.4375 76.5625 C-103.14085449 77.69550537 -102.84420898 78.82851074 -102.53857422 79.99584961 C-100.62449499 87.36416607 -98.80115873 94.75484748 -97.15405273 102.18774414 C-96.63860222 105.36595765 -96.63860222 105.36595765 -95 108 C-92.98860996 102.30147594 -91.3371998 96.6816715 -90.1875 90.75 C-90.02427246 89.92918945 -89.86104492 89.10837891 -89.69287109 88.26269531 C-88.54275559 82.29811829 -87.55790947 76.31340045 -86.62109375 70.3125 C-82.01164838 40.8086653 -82.01164838 40.8086653 -78.875 28.25 C-78.64570801 27.32413086 -78.41641602 26.39826172 -78.18017578 25.44433594 C-74.25029704 10.50019802 -74.25029704 10.50019802 -69 7 C-62.06956172 6.32931242 -62.06956172 6.32931242 -58.40234375 8.62890625 C-42.61549952 24.21039315 -44.5944016 66.93052592 -42 88 C-41.84112305 89.28970703 -41.68224609 90.57941406 -41.51855469 91.90820312 C-41.37579102 93.06771484 -41.23302734 94.22722656 -41.0859375 95.421875 C-40.82833752 97.51044289 -40.57054157 99.59898662 -40.3125 101.6875 C-40.13775146 103.10567017 -40.13775146 103.10567017 -39.95947266 104.55249023 C-39.14546018 111.06993757 -38.17660115 117.53720854 -37 124 C-34.38362729 110.74669561 -32.06112889 97.48249852 -30.04974365 84.12438965 C-19.13223874 11.84827942 -19.13223874 11.84827942 -11 1 C-7.14842887 -1.33121411 -4.253072 -1.41769067 0 0 Z " fill="#EA9BAC" transform="translate(356,226)"/>
</svg>
